<svg width="130" height="130" viewBox="0 0 13 13" fill="none" xmlns="http://www.w3.org/2000/svg">
<!-- Top -->
<rect x="5" y="0" width="1" height="1" fill="#FF8C00"/>
<rect x="7" y="0" width="1" height="1" fill="#FF8C00"/>
<!-- Row 1 -->
<rect x="3" y="1" width="1" height="1" fill="#FF8C00"/>
<rect x="9" y="1" width="1" height="1" fill="#FF8C00"/>
<!-- Row 2 - upper clusters -->
<rect x="2" y="2" width="1" height="1" fill="#FF8C00"/>
<rect x="4" y="2" width="1" height="1" fill="#FF8C00"/>
<rect x="8" y="2" width="1" height="1" fill="#FF8C00"/>
<rect x="10" y="2" width="1" height="1" fill="#FF8C00"/>
<!-- Row 3 -->
<rect x="2" y="3" width="1" height="1" fill="#FF8C00"/>
<rect x="3" y="3" width="1" height="1" fill="#FF8C00"/>
<rect x="8" y="3" width="1" height="1" fill="#FF8C00"/>
<rect x="9" y="3" width="1" height="1" fill="#FF8C00"/>
<!-- Row 4 -->
<rect x="3" y="4" width="1" height="1" fill="#FF8C00"/>
<rect x="8" y="4" width="1" height="1" fill="#FF8C00"/>
<!-- Row 5 - sides -->
<rect x="1" y="5" width="1" height="1" fill="#FF8C00"/>
<rect x="11" y="5" width="1" height="1" fill="#FF8C00"/>
<!-- Row 7 - sides -->
<rect x="1" y="7" width="1" height="1" fill="#FF8C00"/>
<rect x="11" y="7" width="1" height="1" fill="#FF8C00"/>
<!-- Row 8 -->
<rect x="3" y="8" width="1" height="1" fill="#FF8C00"/>
<rect x="8" y="8" width="1" height="1" fill="#FF8C00"/>
<!-- Row 9 - lower clusters -->
<rect x="2" y="9" width="1" height="1" fill="#FF8C00"/>
<rect x="3" y="9" width="1" height="1" fill="#FF8C00"/>
<rect x="8" y="9" width="1" height="1" fill="#FF8C00"/>
<rect x="9" y="9" width="1" height="1" fill="#FF8C00"/>
<!-- Row 10 -->
<rect x="2" y="10" width="1" height="1" fill="#FF8C00"/>
<rect x="4" y="10" width="1" height="1" fill="#FF8C00"/>
<rect x="8" y="10" width="1" height="1" fill="#FF8C00"/>
<rect x="10" y="10" width="1" height="1" fill="#FF8C00"/>
<!-- Row 11 -->
<rect x="3" y="11" width="1" height="1" fill="#FF8C00"/>
<rect x="9" y="11" width="1" height="1" fill="#FF8C00"/>
<!-- Bottom -->
<rect x="5" y="12" width="1" height="1" fill="#FF8C00"/>
<rect x="7" y="12" width="1" height="1" fill="#FF8C00"/>
</svg>
